<svg width="17" height="21" viewBox="0 0 17 21" fill="none" xmlns="http://www.w3.org/2000/svg">
<path d="M10.625 0H2.125C0.95625 0 0 0.945 0 2.1V18.9C0 20.055 0.95625 21 2.125 21H14.875C16.0438 21 17 20.055 17 18.9V6.3L10.625 0ZM11.6875 9.45H7.4375V10.5H10.625C11.2094 10.5 11.6875 10.9725 11.6875 11.55V14.7C11.6875 15.2775 11.2094 15.75 10.625 15.75H9.5625V16.8H7.4375V15.75H5.3125V13.65H9.5625V12.6H6.375C5.79063 12.6 5.3125 12.1275 5.3125 11.55V8.4C5.3125 7.8225 5.79063 7.35 6.375 7.35H7.4375V6.3H9.5625V7.35H11.6875V9.45Z" fill="#A7A7A7"/>
</svg>
