<svg width="19" height="22" viewBox="0 0 19 22" fill="none" xmlns="http://www.w3.org/2000/svg">
<path d="M6.86117 0C6.44124 0 6.03851 0.166815 5.74158 0.463748C5.44465 0.76068 5.27783 1.16341 5.27783 1.58333V2.63889C5.27783 3.05882 5.44465 3.46154 5.74158 3.75847C6.03851 4.05541 6.44124 4.22222 6.86117 4.22222H12.1389C12.5589 4.22222 12.9616 4.05541 13.2585 3.75847C13.5555 3.46154 13.7223 3.05882 13.7223 2.63889V1.58333C13.7223 1.16341 13.5555 0.76068 13.2585 0.463748C12.9616 0.166815 12.5589 0 12.1389 0H6.86117Z" fill="#A7A7A7"/>
<path fill-rule="evenodd" clip-rule="evenodd" d="M3.69444 2.1499C2.36656 2.22379 1.52844 2.4349 0.927833 3.03657C-6.2916e-08 3.9644 0 5.45696 0 8.44207V14.7754C0 17.7616 -6.2916e-08 19.2541 0.927833 20.182C1.85461 21.1087 3.34822 21.1087 6.33333 21.1087H12.6667C15.6518 21.1087 17.1454 21.1087 18.0722 20.182C19 19.2531 19 17.7616 19 14.7754V8.44207C19 5.45696 19 3.9644 18.0722 3.03657C17.4716 2.4349 16.6334 2.22379 15.3056 2.1499V2.63862C15.3056 3.47848 14.9719 4.28393 14.3781 4.8778C13.7842 5.47166 12.9787 5.80529 12.1389 5.80529H6.86111C6.02126 5.80529 5.21581 5.47166 4.62194 4.8778C4.02807 4.28393 3.69444 3.47848 3.69444 2.63862V2.1499ZM4.22222 8.18029C4.01226 8.18029 3.8109 8.2637 3.66243 8.41217C3.51396 8.56063 3.43056 8.76199 3.43056 8.97196C3.43056 9.18192 3.51396 9.38328 3.66243 9.53175C3.8109 9.68022 4.01226 9.76362 4.22222 9.76362H4.75C4.95996 9.76362 5.16133 9.68022 5.30979 9.53175C5.45826 9.38328 5.54167 9.18192 5.54167 8.97196C5.54167 8.76199 5.45826 8.56063 5.30979 8.41217C5.16133 8.2637 4.95996 8.18029 4.75 8.18029H4.22222ZM7.91667 8.18029C7.7067 8.18029 7.50534 8.2637 7.35687 8.41217C7.20841 8.56063 7.125 8.76199 7.125 8.97196C7.125 9.18192 7.20841 9.38328 7.35687 9.53175C7.50534 9.68022 7.7067 9.76362 7.91667 9.76362H14.7778C14.9877 9.76362 15.1891 9.68022 15.3376 9.53175C15.486 9.38328 15.5694 9.18192 15.5694 8.97196C15.5694 8.76199 15.486 8.56063 15.3376 8.41217C15.1891 8.2637 14.9877 8.18029 14.7778 8.18029H7.91667ZM4.22222 11.8747C4.01226 11.8747 3.8109 11.9581 3.66243 12.1066C3.51396 12.2551 3.43056 12.4564 3.43056 12.6664C3.43056 12.8764 3.51396 13.0777 3.66243 13.2262C3.8109 13.3747 4.01226 13.4581 4.22222 13.4581H4.75C4.95996 13.4581 5.16133 13.3747 5.30979 13.2262C5.45826 13.0777 5.54167 12.8764 5.54167 12.6664C5.54167 12.4564 5.45826 12.2551 5.30979 12.1066C5.16133 11.9581 4.95996 11.8747 4.75 11.8747H4.22222ZM7.91667 11.8747C7.7067 11.8747 7.50534 11.9581 7.35687 12.1066C7.20841 12.2551 7.125 12.4564 7.125 12.6664C7.125 12.8764 7.20841 13.0777 7.35687 13.2262C7.50534 13.3747 7.7067 13.4581 7.91667 13.4581H14.7778C14.9877 13.4581 15.1891 13.3747 15.3376 13.2262C15.486 13.0777 15.5694 12.8764 15.5694 12.6664C15.5694 12.4564 15.486 12.2551 15.3376 12.1066C15.1891 11.9581 14.9877 11.8747 14.7778 11.8747H7.91667ZM4.22222 15.5692C4.01226 15.5692 3.8109 15.6526 3.66243 15.8011C3.51396 15.9495 3.43056 16.1509 3.43056 16.3608C3.43056 16.5708 3.51396 16.7722 3.66243 16.9206C3.8109 17.0691 4.01226 17.1525 4.22222 17.1525H4.75C4.95996 17.1525 5.16133 17.0691 5.30979 16.9206C5.45826 16.7722 5.54167 16.5708 5.54167 16.3608C5.54167 16.1509 5.45826 15.9495 5.30979 15.8011C5.16133 15.6526 4.95996 15.5692 4.75 15.5692H4.22222ZM7.91667 15.5692C7.7067 15.5692 7.50534 15.6526 7.35687 15.8011C7.20841 15.9495 7.125 16.1509 7.125 16.3608C7.125 16.5708 7.20841 16.7722 7.35687 16.9206C7.50534 17.0691 7.7067 17.1525 7.91667 17.1525H14.7778C14.9877 17.1525 15.1891 17.0691 15.3376 16.9206C15.486 16.7722 15.5694 16.5708 15.5694 16.3608C15.5694 16.1509 15.486 15.9495 15.3376 15.8011C15.1891 15.6526 14.9877 15.5692 14.7778 15.5692H7.91667Z" fill="#A7A7A7"/>
</svg>
