<svg width="20" height="21" viewBox="0 0 20 21" fill="none" xmlns="http://www.w3.org/2000/svg">
<path d="M11.6111 0.58529C11.1603 0.207305 10.5896 0 10 0C9.41038 0 8.83974 0.207305 8.38889 0.58529L0.888889 6.87992C0.61051 7.1133 0.386732 7.40436 0.233197 7.73273C0.0796622 8.0611 7.52542e-05 8.41887 0 8.78102V19.0657C0 20.1335 0.871111 21 1.94444 21H5.27778C5.79348 21 6.28805 20.7962 6.65271 20.4335C7.01736 20.0707 7.22222 19.5787 7.22222 19.0657V14.6413C7.22222 13.8897 7.82444 13.2795 8.57444 13.2597H11.4256C11.7875 13.2692 12.1314 13.4189 12.384 13.677C12.6366 13.9351 12.7779 14.2811 12.7778 14.6413V19.0657C12.7778 20.1335 13.6489 21 14.7222 21H18.0556C18.5713 21 19.0658 20.7962 19.4305 20.4335C19.7951 20.0707 20 19.5787 20 19.0657V8.77991C19.9999 8.41776 19.9203 8.05999 19.7668 7.73162C19.6133 7.40325 19.3895 7.1122 19.1111 6.87881L11.6111 0.58529Z" fill="#A7A7A7"/>
</svg>
