<svg width="21" height="20" viewBox="0 0 21 20" fill="none" xmlns="http://www.w3.org/2000/svg">
<path fill-rule="evenodd" clip-rule="evenodd" d="M5.83441 4.45661C5.83441 3.24434 6.32596 2.08172 7.20093 1.22451C8.0759 0.367302 9.26261 0 10.5 0C11.7374 0 12.9241 0.367302 13.7991 1.22451C14.674 2.08172 15.1656 3.24434 15.1656 4.45661C15.1656 5.66889 14.674 6.83151 13.7991 7.68872C12.9241 8.54593 11.7374 9.0275 10.5 9.0275C9.26261 9.0275 8.0759 8.54593 7.20093 7.68872C6.32596 6.83151 5.83441 5.66889 5.83441 4.45661ZM5.83441 10.5702C3.50161 10.8559 2.80428 11.4578 1.71057 12.5293C0.61686 13.6008 0.00242023 15.0541 0.00242023 16.5695C0.00242023 17.4787 -0.0706066 18.7834 0.585619 19.4263C1.24185 20.0692 2.57357 19.9976 3.50161 19.9976H17.4984C18.4264 19.9976 19.7582 20.0692 20.4144 19.4263C21.0706 18.7834 20.9976 17.4787 20.9976 16.5695C20.9976 15.0541 20.3831 13.6008 19.2894 12.5293C18.1957 11.4578 17.4984 10.8559 15.1656 10.5702C12.8328 10.2845 12.3362 10.2845 10.5 10.2845C8.66379 10.2845 8.1672 10.2845 5.83441 10.5702Z" fill="#A7A7A7"/>
</svg>
