<svg width="19" height="19" viewBox="0 0 19 19" fill="none" xmlns="http://www.w3.org/2000/svg">
<path d="M9.5 13.7222C8.91945 13.7222 8.42263 13.5157 8.00956 13.1026C7.59648 12.6895 7.38959 12.1924 7.38889 11.6111C7.38819 11.0299 7.59507 10.533 8.00956 10.1207C8.42404 9.7083 8.92085 9.50141 9.5 9.5C10.0791 9.49859 10.5763 9.70548 10.9915 10.1207C11.4067 10.5359 11.6132 11.0327 11.6111 11.6111C11.609 12.1896 11.4025 12.6867 10.9915 13.1026C10.5805 13.5185 10.0834 13.725 9.5 13.7222ZM4.61806 4.22222H14.3819L16.4931 0H2.50694L4.61806 4.22222ZM5.7 19H13.3C14.8833 19 16.2292 18.4504 17.3375 17.3512C18.4458 16.252 19 14.9016 19 13.3C19 12.6315 18.8856 11.9806 18.6569 11.3472C18.4282 10.7139 18.1028 10.1421 17.6806 9.63194L14.9361 6.33333H4.06389L1.31944 9.63194C0.897222 10.1421 0.571759 10.7139 0.343056 11.3472C0.114352 11.9806 0 12.6315 0 13.3C0 14.9009 0.549945 16.2513 1.64983 17.3512C2.74972 18.4511 4.09978 19.0007 5.7 19Z" fill="#A7A7A7"/>
</svg>
